<?xml version="1.0" encoding="utf-8"?><!-- Uploaded to: SVG Repo, www.svgrepo.com, Generator: SVG Repo Mixer Tools -->
<svg width="800px" height="800px" viewBox="0 0 64 64" id="Layer_1" data-name="Layer 1" xmlns="http://www.w3.org/2000/svg"><defs><style>.cls-1{fill:none;stroke:#000000;stroke-linecap:round;stroke-linejoin:round;stroke-width:2px;}</style></defs><title>bouque, flowers, roses, love, romance</title><path class="cls-1" d="M30.3,16.22a5.47,5.47,0,0,0-.47-1.91c-.36-.82-.8-2.08.66-1.78a5.3,5.3,0,0,1,3.17,2.06,5.81,5.81,0,0,1,1.1,3.12"/><path class="cls-1" d="M39,14.73a3.19,3.19,0,0,0-2.62-1.33"/><path class="cls-1" d="M40.58,20.79A7.77,7.77,0,0,1,42.1,16.9c.61-.66,1.43-1.71,0-1.9a5.44,5.44,0,0,0-4.38,1.51"/><path class="cls-1" d="M27,25.78h0"/><path class="cls-1" d="M18.75,15.3a5.74,5.74,0,0,0-1-1c-.72-.55-1.7-1.44-.28-1.88a5.3,5.3,0,0,1,3.77.29,9.51,9.51,0,0,1,2.84,2"/><path class="cls-1" d="M26.09,10.8a3.19,3.19,0,0,0-2.93.08"/><path class="cls-1" d="M25.49,12.39A5.4,5.4,0,0,1,28.62,9c1.39-.54,1.17.77.95,1.65a5.4,5.4,0,0,0-.13,2.12"/><path class="cls-1" d="M22.61,32h-.06A3.32,3.32,0,0,1,22,32h-.19l-.28,0-.34-.07h0l-.34-.1a2.27,2.27,0,0,1-.36-.13A4.74,4.74,0,0,1,18.4,30l-.19-.28A18.62,18.62,0,0,0,16.29,27a5.21,5.21,0,0,0-1.94-1.28c-.84-.33-2-.92-.78-1.73a5.31,5.31,0,0,1,3.7-.76,7,7,0,0,1,4.52,3.18"/><path class="cls-1" d="M20.43,19.31a3.19,3.19,0,0,0-2.8.89"/><path class="cls-1" d="M20.43,20.82a5.52,5.52,0,0,1,.69-1.57,2.73,2.73,0,0,1,.19-.29,4.68,4.68,0,0,1,.93-1l.11-.09c.87-.65,1.18-.13,1.3.55a5.16,5.16,0,0,1,.07.77,5.5,5.5,0,0,0,.89,2.91c.23.38.5.74.78,1.12s.45.59.68.91l.24.33a4.55,4.55,0,0,1,.64,1.34,4.77,4.77,0,0,1,.1,2.48,9.33,9.33,0,0,1-.75,1.81,3.87,3.87,0,0,0-.23.6h0a2.59,2.59,0,0,0,0,1.36,3.8,3.8,0,0,0,.54,1.23l.2.29"/><path class="cls-1" d="M46.8,21.53a3.19,3.19,0,0,0-1.36-2.6"/><path class="cls-1" d="M45.44,21.69A4,4,0,0,1,48,22a2.64,2.64,0,0,1,.32.14,4.66,4.66,0,0,1,1.16.75l.1.09c.8.75.34,1.15-.32,1.37a5.4,5.4,0,0,1-.75.21A5.48,5.48,0,0,0,45.77,26c-.38.34-.75.72-1.13,1.13"/><path class="cls-1" d="M32.49,32.53a4.44,4.44,0,0,1-.89-.65,4.8,4.8,0,0,1-1.51-4.39,23.13,23.13,0,0,0,.59-3.57,5.38,5.38,0,0,0-.46-2.28c-.36-.83-.79-2.09.67-1.77a5.15,5.15,0,0,1,1.9.85A5.05,5.05,0,0,1,34,21.94,7,7,0,0,1,35,27.38"/><path class="cls-1" d="M37.79,22.58a5.62,5.62,0,0,1,3.47-.87l.17,0c1.48.21.64,1.24,0,1.9a1.87,1.87,0,0,0-.15.18,5.45,5.45,0,0,0-1,1.6,9.38,9.38,0,0,0-.5,2.11c-.07.52-.14,1.07-.25,1.66,0,.08,0,.16-.05.24a4.52,4.52,0,0,1-1.84,2.69c-1,.7-2,.82-2.59,1.89"/><path class="cls-1" d="M42.34,30,42,31.72a13.83,13.83,0,0,1-.61,2.13l-2.27,6"/><path class="cls-1" d="M35.71,50.87l-.48,1.73a3,3,0,0,1-2.89,2.2,3,3,0,0,1-2.23-1,3.63,3.63,0,0,1-.71-2.15,6.67,6.67,0,0,0-.6-2.79,1.89,1.89,0,0,0-2-.76c-.92.24-1.67,1.15-2.69,1a2.27,2.27,0,0,1-1.61-2.74c.54-2.26,3.29-1.81,4.93-1.27.45.15.9.32,1.33.51h0l.41.18c1.56.69,3,1.53,4.65,2.15,2.51,1,5.58,1.89,6.69-1.4A3.09,3.09,0,0,0,39,42.86a3.62,3.62,0,0,0-3.95,1,9.93,9.93,0,0,1-2.64,1.94,4.05,4.05,0,0,1-3.27,0l-.41-.18h0a7,7,0,0,1-1.57-1.14,8.43,8.43,0,0,1-2-3.25l-3.25-8-.48-1.29"/><path class="cls-1" d="M26.52,36.38a12.57,12.57,0,0,0,1.35.4,16.55,16.55,0,0,0,3.92.45A19.09,19.09,0,0,0,34,37.1c4.45-.55,7.79-2.85,8.38-7.13"/></svg>