<?xml version="1.0" encoding="iso-8859-1"?>
<!-- Uploaded to: SVG Repo, www.svgrepo.com, Generator: SVG Repo Mixer Tools -->
<!DOCTYPE svg PUBLIC "-//W3C//DTD SVG 1.1//EN" "http://www.w3.org/Graphics/SVG/1.1/DTD/svg11.dtd">
<svg height="800px" width="800px" version="1.1" id="Capa_1" xmlns="http://www.w3.org/2000/svg" xmlns:xlink="http://www.w3.org/1999/xlink" 
	 viewBox="0 0 439.822 439.822" xml:space="preserve">
<g>
	<g>
		<path style="fill:#CC7C80;" d="M376.622,106.082c7.84,3.15,9.37,9.06,6.66,17.19c-3.74,11.2-12.48,16.76-22.92,17.93
			c-14.95,1.67-28.49,6.14-41.47,13.49c-10.31,5.83-21.88,7.1-33.71,7.7c-9.02-1.4-18.14-2.36-27.04-4.29
			c-19.25-4.18-38.08-3.17-57.13,1.73c-16.17,4.16-32.86,4.78-49.16,0.43c-5.26-1.41-11.04-4.31-14.55-8.32
			c-14.84-16.93-33.2-18.6-53.46-14.23c-8.1,1.75-16.21,2.99-24.27-0.49c-8.2-3.54-9.97-8.95-3.44-15.13
			c6.48-6.13,14.17-11.06,21.65-16.02c8.3-5.51,17.86-7.34,27.47-5.47c4.48,0.87,8.8,4.17,12.5,7.21
			c11.39,9.38,21.75,20.18,33.83,28.51c12.53,8.64,27.08,6.37,40.99,2.32c13.18-3.84,26.23-8.14,39.43-11.9
			c3.28-0.94,6.94-0.86,10.42-0.79c13.12,0.27,26.23,0.73,39.34,1.13c0.92,0.03,2.11-0.21,2.72,0.26c7.73,5.97,15.49,1.08,23.09-0.1
			c8.54-1.33,15.11-6.46,20.54-13.05c4.76-5.76,9.47-11.56,14.36-17.21c0.73-0.84,2.56-1.54,3.54-1.23
			C356.272,99.022,366.632,102.082,376.622,106.082z"/>
		<path style="fill:#C1272D;" d="M344.332,39.002c4.67,1.42,6.09,4.78,6.05,8.76c-0.13,14.55-5.04,27.74-12.99,39.69
			c-4.72,7.1-10.68,13.37-15.54,20.39c-5.63,8.14-13.82,10.27-24.04,11.43c11.84-21.35,11.76-43.05,7.59-64.84
			c2.8-8.41,5.61-16.82,8.49-25.48C323.882,32.282,334.042,35.862,344.332,39.002z M341.512,62.442c1.21-2.38,0.07-6.83-1.49-9.55
			c-3.41-5.94-8.45-7.62-12.2-5.76c3.38,3.78,6.92,7.73,10.45,11.68c-5.76,5.17-12.46,4.67-18.85-0.37
			c-3.47-2.74-5.72-6.11-4.12-10.53c1.58-4.36,5.12-6.82,9.86-6.46c3.39,0.25,6.72,1.22,11.74,2.2c-3.59-2.24-5.72-3.99-8.16-5.02
			c-5.84-2.46-13.62,0.2-16.98,5.49c-3.65,5.77-2.65,11.71,2.97,16.7c5.18,4.6,11.23,7.3,18.19,6
			C336.072,66.242,340.322,64.792,341.512,62.442z M313.222,74.212c0.12,6.36,10.8,9.91,23.98,6.05
			C328.282,78.012,320.642,76.082,313.222,74.212z"/>
		<path style="fill:#994A4D;" d="M330.192,162.332c3.49-1.94,7.15-3.59,11.89-5.95c-5.54,16.47-10.42,31.88-15.9,47.06
			c-6.63,18.4-15.02,35.99-27.33,51.34c-9.44,11.76-19.96,22.48-33.45,30.17c10.21-20.62,19.24-41.42,18.11-64.88
			c-0.61-0.23-1.22-0.45-1.84-0.68c-2.74,6.33-5.41,12.69-8.24,18.97c-8.07,17.9-16.32,35.72-24.26,53.68
			c-1.88,4.26-4.62,6.3-9.16,6.49c-2.16,0.09-4.3,0.68-6.5,1.05c1.68-24.69-0.94-48.66-9.3-71.95c-5.82,23.99,0.73,47.61,1.97,71.1
			c-14.28,4.68-23.32-2.73-31.01-13.62c2.97-6.56,6.12-13.54,9.28-20.51c-0.69-0.35-1.38-0.7-2.07-1.04
			c-5.88,4.39-7.47,11.64-10.81,17.94c-20.23-18.78-25.85-44.34-32.29-69.66c-4.19,5.45-3.3,11.26-2.85,16.99
			c0.1,1.27,0.34,2.59,0.79,3.78c4.43,11.51-2.75,21.37-4.21,32.13c-6.76-3.1-8.19-5.86-6.36-12.17c1.74-5.93,3.58-11.83,4.64-18.05
			c-6.39,4.21-7.36,11.48-10.52,17.61c-3.27-2.57-4.22-5.44-2.63-9.55c2.53-6.5,4.59-13.2,6.75-19.85c0.53-1.61,0.68-3.34,0.38-5.24
			c-7.34,5.74-8.12,15.05-12.57,22.49c-2.94-2.09-4.24-4.23-2.5-7.89c3.37-7.13,6.37-14.44,9.46-21.7c0.97-2.28,1.74-4.65,1.84-7.33
			c-8.33,7.19-11.73,17.22-16.08,27.1c-2.91-3-4.88-5.77-2.86-10.39c4.92-11.26,9.43-22.7,13.54-34.36
			c-8.53,9.43-14.02,20.5-17.34,32.75c-0.17-0.08-0.34-0.16-1.06-0.5c-2.6-5.94-5.65-12.21-8-18.73c-0.7-1.92,0.16-4.77,1.08-6.85
			c3.24-7.32,6.82-14.49,10.27-21.7c-4.71-0.26-4.71-0.26-14.74,19.37c-4-5.75,0.63-10.21,1.74-14.94
			c1.13-4.83,2.81-9.53,3.38-14.66c-6.82,3.51-6.6,11.14-10.53,16.94c-2.24-4.96-4.34-9.65-6.46-14.32
			c-2.18-4.77-4.38-9.53-6.75-14.71c13.95-3.49,26.61-3.72,36.41,7.83c16.38,19.34,38.3,20.48,60.79,18.09
			c14.13-1.49,27.95-5.99,42.08-7.48c8.6-0.91,17.62,0.81,26.29,2.29c14.84,2.54,29.46,6.05,44.77,3.99
			C309.462,171.242,320.152,167.942,330.192,162.332z M192.942,266.832c4.44-7.14,8.88-14.28,13.32-21.41
			c-0.44-0.28-0.88-0.55-1.32-0.82c-5.72,3.14-13.47,15.06-13.74,21.15C191.782,266.112,192.362,266.472,192.942,266.832z
			 M185.782,256.552c6.12-7.5,11.21-15.47,11.68-25.51C192.342,238.982,186.592,246.622,185.782,256.552z"/>
		<path style="fill:#C1272D;" d="M301.532,17.102c1.93,0.99,2.75,6.69,2.06,9.77c-1.44,6.5-4.21,12.71-6.58,19.45
			c-14.73-7.39-29.94-7.72-45.23-7.11c-4.31,0.17-7.24-0.34-6.96-5.68c0.12-2.33-0.84-4.7-0.96-7.06
			c-0.44-9.2,3.86-13.62,12.98-14.16c5.46-0.33,10.88-1.3,16.31-2.01C283.472,8.942,292.762,12.632,301.532,17.102z M286.592,26.442
			c1.34-0.46,2.06-2.74,3.06-4.18c-1.72-0.35-3.59-1.3-5.13-0.91c-4.39,1.08-8.59,2.98-12.98,4.07c-9.36,2.34-12.17,2.12-16.57-0.83
			c9.87-7.13,21.4-5.64,32.18-7.64c-10.69-3.97-21.02-1.32-31.24,1.57c-3.42,0.97-7.35,3.46-5.84,7.37
			c0.95,2.45,5.01,4.78,7.95,5.19C267.892,32.472,277.352,29.582,286.592,26.442z"/>
		<path style="fill:#C1272D;" d="M283.072,48.922c13.18,2.01,16.14,6.5,15.32,19.56c-0.62,9.9-1.4,19.9-3.48,29.55
			c-1.51,6.96-5.28,13.43-7.81,19.58c-16.45,0-32.27,0-49.03,0c-1.33-8.39-2.88-17.19-4.08-26.05c-1.37-10.08-1.42-20.16,1.03-30.16
			c2.09-8.53,7.74-13.37,16.49-13.32C262.052,48.142,272.752,47.342,283.072,48.922z M278.742,84.602c8.96-2.14,10.85-9,5.46-16.42
			c-6.43-8.85-14.99-9.31-25.05-4.55c-1.22,0.58-1.86,2.36-2.76,3.58c1.58,0.28,3.22,0.94,4.74,0.75c3.97-0.5,7.87-1.83,11.83-1.97
			c3.97-0.14,10.88,6.48,9.49,9.2c-1.42,2.77-5.13,5.72-8.12,6.05c-7.04,0.78-14.32,0.6-21.37-0.23c-6.01-0.71-9.95-5.32-10.35-9.96
			c-0.53-6.15,3.5-8.99,8.24-11.15c7.39-3.35,14.99-4.86,23.01-2.13c1.97,0.67,4.13,0.77,6.21,1.13c0.25-0.64,0.51-1.28,0.77-1.92
			c-1.79-1-3.49-2.25-5.39-2.96c-11.02-4.13-21.35-1.9-31,4.07c-8.65,5.36-9.37,15.28-2.15,22.47c4.43,4.42,9.96,5.61,15.7,5.58
			C264.942,86.102,272.082,86.202,278.742,84.602z M283.252,95.042c-3.54,1.21-6.25,1.93-8.79,3.03
			c-7.57,3.31-14.46,3.78-20.39-3.38c-1.74-2.1-4.4-3.42-6.65-5.09c-0.47,0.58-0.95,1.17-1.42,1.75c4.15,6.84,8.4,13.65,17.69,14.45
			C270.712,106.402,280.152,101.532,283.252,95.042z"/>
		<path style="fill:#994A4D;" d="M294.662,405.162c-6.33,0.85-12.69,3.07-17.9,9.32c-4.7,5.62-13.22,8.46-22.12,1.22
			c-7.31-5.93-13.48-5.03-16.79,3.45c-5.76,14.78-19.49,13.35-29.76,7.58c-2.39-1.35-4.7-2.95-6.76-4.76
			c-8.52-7.51-18.31-9.48-30.72-6.33c8.81-29.29,24.06-54.75,33.6-82.7c3.05,0.92,5.78,1.74,8.26,2.49
			c-5.42,19.1-11.9,37.6-8.77,58.22c8.96-4.52,14.91-29.16,14.82-56.93c5.43,0,10.86,0,16.45,0c2.95,15.58,1.03,32.22,9.52,47.12
			c5-2.66,6.56-6.46,5.98-10.53c-1.62-11.41-3.77-22.74-5.76-34.09c-0.27-1.56-0.82-3.07-1.21-4.51c7.98-3.14,15.65-6.17,23.07-9.09
			C275.932,352.112,285.312,378.682,294.662,405.162z"/>
		<path style="fill:#CC7C80;" d="M265.702,309.812c0.99,3.27,2.45,6.92-2.17,8.97c-17.19,7.59-34.54,13.17-53.62,6.86
			c-11.9-3.93-12.19-3.86-11.36-17.24c5.95,0.51,11.89,1.37,17.84,1.46c7.51,0.13,15.03-0.36,22.54-0.6
			c1.58-0.06,3.18-0.04,4.73-0.3c2.4-0.41,4.99-0.59,7.08-1.67c3.87-1.99,7.44-4.57,11.2-6.93
			C263.342,303.832,264.782,306.742,265.702,309.812z"/>
		<path style="fill:#C1272D;" d="M236.432,21.232c0.17,6.46,1.92,12.89,3.12,20.22c-13.57,4.54-15.08,17.27-16.51,29.56
			c-1.52,13,2.26,36.01,9.61,47.93c-6.96,2.16-13.81,4.28-20,6.2c-1.82-14.83-2.92-29.72-5.72-44.28
			c-1.62-8.46-5.58-16.58-9.22-24.52c-2.89-6.27-8.39-10.06-15.2-11.67c-2.89-0.68-4.81-2.19-5.13-5.37
			c-0.13-1.25-0.58-2.49-0.99-3.7c-5.03-14.9-3.67-12.82,8.1-17.7c13.2-5.47,27.15-7.3,41.26-7.83
			C233.772,9.772,236.222,13.322,236.432,21.232z M227.032,26.062c2.55-1.67,2.51-3.98-0.3-5.65c-4.02-2.4-14.22-0.65-19.03,4.22
			c5.05-0.31,8.83-0.54,12.92-0.79c-6.61,7.42-27.42,9.62-34.59,2.65c11.32-3.8,21.89-7.35,33.1-11.11
			c-1.89-0.28-3.38-0.65-4.88-0.69c-9.88-0.3-18.64,3.68-27.31,7.62c-2.15,0.98-5.35,4.28-4.95,5.31c0.97,2.51,3.43,5.5,5.89,6.21
			C202.132,37.992,215.062,33.942,227.032,26.062z M219.452,49.132c-4.73,1.54-8.64,2.82-13.79,4.5
			C212.802,57.202,217.022,55.742,219.452,49.132z M196.652,47.022c6.24,5.62,26.64,1.45,32.93-8.8
			C218.492,41.192,207.392,44.152,196.652,47.022z"/>
		<path style="fill:#C1272D;" d="M200.622,123.312c0.13,1.73,1.18,3.39,2.05,5.7c-12.62,4.34-25.82,3.9-38.36,1.73
			c-6.67-1.15-12.56-7.67-18.44-12.24c-8.73-6.78-17.08-14.05-25.72-20.96c-2.66-2.13-6.57-3.14-8.45-5.73
			c-5.27-7.27-3.78-14.56,4.47-19.47c7.53-4.47,15.65-8.1,23.83-11.28c11.92-4.63,23.81-9.67,36.99-9.7
			c6.44-0.02,10.9,2.84,13.5,8.64c5.95,13.28,8.32,27.32,8.94,41.75C199.742,108.942,200.072,116.142,200.622,123.312z
			 M186.912,97.422c-0.46-0.69-0.91-1.37-1.36-2.05c-4.98,2.91-10.05,5.66-14.9,8.78c-6.1,3.92-12.32,6.7-19.77,4.28
			c-0.48-0.16-1.21,0.41-2.32,0.84c3.26,4.7,7.99,5.78,12.26,5.03C171.802,112.372,179.802,105.402,186.912,97.422z M179.042,74.132
			c1.65-1.31,3.68-4.67,3.09-5.74c-1.13-2.06-3.85-4.07-6.19-4.49c-10.08-1.8-18.88,1.85-26.91,7.63c-0.9,0.65-1.97,2.32-1.7,3.07
			c0.4,1.13,1.93,2.64,2.95,2.62c4.14-0.1,8.27-0.71,12.41-1.13c-0.01-0.57-0.02-1.14-0.03-1.7c-1.41-0.79-2.81-1.59-4.4-2.48
			c8.89-6.12,15.08-6.85,18.91-2.41c-15.3,15.01-34.21,12.4-53.36,10.37c11.94-13.46,30.15-15.2,44.64-24.04
			c-15.8,3.4-31.56,6.99-44.99,16.58c-2.55,1.82-5.26,5.94-4.95,8.67c0.5,4.53,5.43,4.65,9.35,4.75c4.63,0.11,9.33-0.43,13.89,0.18
			C156.132,87.922,168.152,82.742,179.042,74.132z M128.362,96.122c5.89,9.49,41.68,5.26,50.45-5.93
			C161.762,92.562,146.042,99.652,128.362,96.122z"/>
		<path style="fill:#994A4D;" d="M160.692,252.472c8.38,12.43,17.17,25.47,25.21,37.39c-8.7-5.88-18.78-12.69-28.89-19.52
			C158.452,263.362,159.692,257.332,160.692,252.472z"/>
		<path style="fill:#C1272D;" d="M168.892,15.272c-8.84,8.64-2.07,17.38,0.3,25.62c-17.76,5.98-35.41,11.92-51.4,17.31
			c-2.37-1.66-5.23-3.2-7.51-5.35c-5.86-5.53-6.02-10.27-0.28-16.04c10.84-10.9,24.02-17.86,38.71-22.12
			c3.16-0.91,6.26-2.05,9.44-2.89C162.272,10.702,166.262,10.392,168.892,15.272z M158.602,19.072c-0.08-0.5-0.17-1.01-0.25-1.51
			c-1.84-0.18-4.05-1.1-5.48-0.41c-11.22,5.44-22.4,11-33.31,17.05c-1.76,0.97-3.36,4.99-2.71,6.77c0.65,1.79,4.18,3.57,6.44,3.56
			c11.15,0,20.73-4.73,29.16-11.62c4.37-3.58,3.05-7-3.97-9C152.622,21.932,155.612,20.502,158.602,19.072z"/>
		<path style="fill:#C1272D;" d="M144.632,25.632c1.64,1.19,3.15,2.28,4.66,3.36c-5.23,6.58-19.78,12.17-28.38,10.46
			C127.852,32.392,137.112,30.472,144.632,25.632z"/>
	</g>
	<g>
		<path d="M390.412,102.672c6.31,6.02,7.89,14.89,4.68,22.85c-7.49,18.6-21.38,27.7-41.19,28.29c-0.53,0.02-1.05,0.2-0.71,0.13
			c-7.66,36.34-17.86,71.23-39.22,101.68c-11.92,16.99-25.74,32.37-45.66,40.63c-0.63,0.26-1.12,0.84-1.8,1.37
			c10.09,3.6,12.04,15.78,4.27,26.08c11.5,9.34,14.77,23.26,19.86,36.16c4.57,11.57,8.93,23.23,13.38,34.85
			c0.52,1.37,1.1,2.73,1.54,4.13c2.93,9.23,0.71,13.86-8.47,16.08c-4.63,1.12-8.06,2.98-11.29,6.7c-8.2,9.45-25.72,12.62-38.39,1.39
			c-3.33,7.96-8.85,13.67-16.83,16.81c-5.57,0-11.13,0-16.7,0c-7.89-4.74-15.97-9.2-23.62-14.3c-8.01-5.34-16.25-4.22-22.37,3.15
			c-1.56,1.88-5.42,3.86-7.08,3.14c-2.19-0.94-4.82-4.71-4.52-6.89c1.22-8.86,2.2-18.13,5.64-26.24
			c8.53-20.1,18.29-39.69,27.74-59.39c1.57-3.28,4.08-6.11,6.16-9.14c-8.22-5.78-9.77-11.47-6.85-22.82
			c-15.37-10.86-31.36-20.39-45.11-32.46c-9.91-8.7-16.92-20.73-25.1-31.38c-14.48-18.83-20.93-41.44-29.4-63.09
			c-3.66-9.37-6.64-19.01-10.32-28.37c-0.53-1.35-3.29-2.59-5-2.57c-7.9,0.1-15.25-1.44-22.05-5.59
			c-8.9-5.42-11.83-14.95-5.49-23.04c4.65-5.93,10.93-10.83,17.16-15.22c9.15-6.45,18.74-12.39,30.07-14.49
			c2.33-0.43,4.69-0.75,5.88-0.94c0.42-5.26-0.26-10.74,1.53-15.23c1.87-4.67,6.13-8.38,9.29-12.42c-1.61-0.88-3.91-2-6.08-3.34
			c-9.95-6.15-11.44-17.85-3.14-26.95c12.27-13.44,27.98-21.16,45.12-26.39c2.45-0.74,4.86-1.65,7.35-2.25
			c9.78-2.37,13.33-3.96,24.32,6.61c13.9-6.62,29.13-7.89,44.12-9.88c9.15-1.21,13.4,0.84,20.89,6.99
			c21.21-6.07,41.95-8.96,62.69,1.48c5.97,3,7.24,7.77,8.15,13.6c12.72-1.67,23.95,3.64,35.28,7.49
			c14.08,4.79,14.38,13.14,12.01,27.53c-1.7,10.31-5.83,20.23-9.12,31.14c3.4,0.75,8.26,1.7,13.06,2.93
			C374.142,93.802,383.332,95.922,390.412,102.672z M383.282,123.272c2.71-8.13,1.18-14.04-6.66-17.19
			c-9.99-4-20.35-7.06-30.61-10.33c-0.98-0.31-2.81,0.39-3.54,1.23c-4.89,5.65-9.6,11.45-14.36,17.21
			c-5.43,6.59-12,11.72-20.54,13.05c-7.6,1.18-15.36,6.07-23.09,0.1c-0.61-0.47-1.8-0.23-2.72-0.26
			c-13.11-0.4-26.22-0.86-39.34-1.13c-3.48-0.07-7.14-0.15-10.42,0.79c-13.2,3.76-26.25,8.06-39.43,11.9
			c-13.91,4.05-28.46,6.32-40.99-2.32c-12.08-8.33-22.44-19.13-33.83-28.51c-3.7-3.04-8.02-6.34-12.5-7.21
			c-9.61-1.87-19.17-0.04-27.47,5.47c-7.48,4.96-15.17,9.89-21.65,16.02c-6.53,6.18-4.76,11.59,3.44,15.13
			c8.06,3.48,16.17,2.24,24.27,0.49c20.26-4.37,38.62-2.7,53.46,14.23c3.51,4.01,9.29,6.91,14.55,8.32
			c16.3,4.35,32.99,3.73,49.16-0.43c19.05-4.9,37.88-5.91,57.13-1.73c8.9,1.93,18.02,2.89,27.04,4.29c11.83-0.6,23.4-1.87,33.71-7.7
			c12.98-7.35,26.52-11.82,41.47-13.49C370.802,140.032,379.542,134.472,383.282,123.272z M350.382,47.762
			c0.04-3.98-1.38-7.34-6.05-8.76c-10.29-3.14-20.45-6.72-30.44-10.05c-2.88,8.66-5.69,17.07-8.49,25.48
			c4.17,21.79,4.25,43.49-7.59,64.84c10.22-1.16,18.41-3.29,24.04-11.43c4.86-7.02,10.82-13.29,15.54-20.39
			C345.342,75.502,350.252,62.312,350.382,47.762z M342.082,156.382c-4.74,2.36-8.4,4.01-11.89,5.95
			c-10.04,5.61-20.73,8.91-32.16,10.45c-15.31,2.06-29.93-1.45-44.77-3.99c-8.67-1.48-17.69-3.2-26.29-2.29
			c-14.13,1.49-27.95,5.99-42.08,7.48c-22.49,2.39-44.41,1.25-60.79-18.09c-9.8-11.55-22.46-11.32-36.41-7.83
			c2.37,5.18,4.57,9.94,6.75,14.71c2.12,4.67,4.22,9.36,6.46,14.32c3.93-5.8,3.71-13.43,10.53-16.94
			c-0.57,5.13-2.25,9.83-3.38,14.66c-1.11,4.73-5.74,9.19-1.74,14.94c10.03-19.63,10.03-19.63,14.74-19.37
			c-3.45,7.21-7.03,14.38-10.27,21.7c-0.92,2.08-1.78,4.93-1.08,6.85c2.35,6.52,5.4,12.79,8,18.73c0.72,0.34,0.89,0.42,1.06,0.5
			c3.32-12.25,8.81-23.32,17.34-32.75c-4.11,11.66-8.62,23.1-13.54,34.36c-2.02,4.62-0.05,7.39,2.86,10.39
			c4.35-9.88,7.75-19.91,16.08-27.1c-0.1,2.68-0.87,5.05-1.84,7.33c-3.09,7.26-6.09,14.57-9.46,21.7c-1.74,3.66-0.44,5.8,2.5,7.89
			c4.45-7.44,5.23-16.75,12.57-22.49c0.3,1.9,0.15,3.63-0.38,5.24c-2.16,6.65-4.22,13.35-6.75,19.85c-1.59,4.11-0.64,6.98,2.63,9.55
			c3.16-6.13,4.13-13.4,10.52-17.61c-1.06,6.22-2.9,12.12-4.64,18.05c-1.83,6.31-0.4,9.07,6.36,12.17
			c1.46-10.76,8.64-20.62,4.21-32.13c-0.45-1.19-0.69-2.51-0.79-3.78c-0.45-5.73-1.34-11.54,2.85-16.99
			c6.44,25.32,12.06,50.88,32.29,69.66c3.34-6.3,4.93-13.55,10.81-17.94c0.69,0.34,1.38,0.69,2.07,1.04
			c-3.16,6.97-6.31,13.95-9.28,20.51c7.69,10.89,16.73,18.3,31.01,13.62c-1.24-23.49-7.79-47.11-1.97-71.1
			c8.36,23.29,10.98,47.26,9.3,71.95c2.2-0.37,4.34-0.96,6.5-1.05c4.54-0.19,7.28-2.23,9.16-6.49
			c7.94-17.96,16.19-35.78,24.26-53.68c2.83-6.28,5.5-12.64,8.24-18.97c0.62,0.23,1.23,0.45,1.84,0.68
			c1.13,23.46-7.9,44.26-18.11,64.88c13.49-7.69,24.01-18.41,33.45-30.17c12.31-15.35,20.7-32.94,27.33-51.34
			C331.662,188.262,336.542,172.852,342.082,156.382z M303.592,26.872c0.69-3.08-0.13-8.78-2.06-9.77
			c-8.77-4.47-18.06-8.16-28.38-6.8c-5.43,0.71-10.85,1.68-16.31,2.01c-9.12,0.54-13.42,4.96-12.98,14.16
			c0.12,2.36,1.08,4.73,0.96,7.06c-0.28,5.34,2.65,5.85,6.96,5.68c15.29-0.61,30.5-0.28,45.23,7.11
			C299.382,39.582,302.152,33.372,303.592,26.872z M298.392,68.482c0.82-13.06-2.14-17.55-15.32-19.56
			c-10.32-1.58-21.02-0.78-31.56-0.84c-8.75-0.05-14.4,4.79-16.49,13.32c-2.45,10-2.4,20.08-1.03,30.16
			c1.2,8.86,2.75,17.66,4.08,26.05c16.76,0,32.58,0,49.03,0c2.53-6.15,6.3-12.62,7.81-19.58
			C296.992,88.382,297.772,78.382,298.392,68.482z M276.762,414.482c5.21-6.25,11.57-8.47,17.9-9.32
			c-9.35-26.48-18.73-53.05-28.09-79.54c-7.42,2.92-15.09,5.95-23.07,9.09c0.39,1.44,0.94,2.95,1.21,4.51
			c1.99,11.35,4.14,22.68,5.76,34.09c0.58,4.07-0.98,7.87-5.98,10.53c-8.49-14.9-6.57-31.54-9.52-47.12c-5.59,0-11.02,0-16.45,0
			c0.09,27.77-5.86,52.41-14.82,56.93c-3.13-20.62,3.35-39.12,8.77-58.22c-2.48-0.75-5.21-1.57-8.26-2.49
			c-9.54,27.95-24.79,53.41-33.6,82.7c12.41-3.15,22.2-1.18,30.72,6.33c2.06,1.81,4.37,3.41,6.76,4.76c10.27,5.77,24,7.2,29.76-7.58
			c3.31-8.48,9.48-9.38,16.79-3.45C263.542,422.942,272.062,420.102,276.762,414.482z M263.532,318.782
			c4.62-2.05,3.16-5.7,2.17-8.97c-0.92-3.07-2.36-5.98-3.76-9.45c-3.76,2.36-7.33,4.94-11.2,6.93c-2.09,1.08-4.68,1.26-7.08,1.67
			c-1.55,0.26-3.15,0.24-4.73,0.3c-7.51,0.24-15.03,0.73-22.54,0.6c-5.95-0.09-11.89-0.95-17.84-1.46
			c-0.83,13.38-0.54,13.31,11.36,17.24C228.992,331.952,246.342,326.372,263.532,318.782z M239.552,41.452
			c-1.2-7.33-2.95-13.76-3.12-20.22c-0.21-7.91-2.66-11.46-10.68-11.16c-14.11,0.53-28.06,2.36-41.26,7.83
			c-11.77,4.88-13.13,2.8-8.1,17.7c0.41,1.21,0.86,2.45,0.99,3.7c0.32,3.18,2.24,4.69,5.13,5.37c6.81,1.61,12.31,5.4,15.2,11.67
			c3.64,7.94,7.6,16.06,9.22,24.52c2.8,14.56,3.9,29.45,5.72,44.28c6.19-1.92,13.04-4.04,20-6.2c-7.35-11.92-11.13-34.93-9.61-47.93
			C224.472,58.722,225.982,45.992,239.552,41.452z M202.672,129.012c-0.87-2.31-1.92-3.97-2.05-5.7
			c-0.55-7.17-0.88-14.37-1.19-21.56c-0.62-14.43-2.99-28.47-8.94-41.75c-2.6-5.8-7.06-8.66-13.5-8.64
			c-13.18,0.03-25.07,5.07-36.99,9.7c-8.18,3.18-16.3,6.81-23.83,11.28c-8.25,4.91-9.74,12.2-4.47,19.47
			c1.88,2.59,5.79,3.6,8.45,5.73c8.64,6.91,16.99,14.18,25.72,20.96c5.88,4.57,11.77,11.09,18.44,12.24
			C176.852,132.912,190.052,133.352,202.672,129.012z M185.902,289.862c-8.04-11.92-16.83-24.96-25.21-37.39
			c-1,4.86-2.24,10.89-3.68,17.87C167.122,277.172,177.202,283.982,185.902,289.862z M169.192,40.892
			c-2.37-8.24-9.14-16.98-0.3-25.62c-2.63-4.88-6.62-4.57-10.74-3.47c-3.18,0.84-6.28,1.98-9.44,2.89
			c-14.69,4.26-27.87,11.22-38.71,22.12c-5.74,5.77-5.58,10.51,0.28,16.04c2.28,2.15,5.14,3.69,7.51,5.35
			C133.782,52.812,151.432,46.872,169.192,40.892z"/>
		<path d="M340.022,52.892c1.56,2.72,2.7,7.17,1.49,9.55c-1.19,2.35-5.44,3.8-8.59,4.38c-6.96,1.3-13.01-1.4-18.19-6
			c-5.62-4.99-6.62-10.93-2.97-16.7c3.36-5.29,11.14-7.95,16.98-5.49c2.44,1.03,4.57,2.78,8.16,5.02c-5.02-0.98-8.35-1.95-11.74-2.2
			c-4.74-0.36-8.28,2.1-9.86,6.46c-1.6,4.42,0.65,7.79,4.12,10.53c6.39,5.04,13.09,5.54,18.85,0.37c-3.53-3.95-7.07-7.9-10.45-11.68
			C331.572,45.272,336.612,46.952,340.022,52.892z"/>
		<path d="M337.202,80.262c-13.18,3.86-23.86,0.31-23.98-6.05C320.642,76.082,328.282,78.012,337.202,80.262z"/>
		<path d="M289.652,22.262c-1,1.44-1.72,3.72-3.06,4.18c-9.24,3.14-18.7,6.03-28.57,4.64c-2.94-0.41-7-2.74-7.95-5.19
			c-1.51-3.91,2.42-6.4,5.84-7.37c10.22-2.89,20.55-5.54,31.24-1.57c-10.78,2-22.31,0.51-32.18,7.64c4.4,2.95,7.21,3.17,16.57,0.83
			c4.39-1.09,8.59-2.99,12.98-4.07C286.062,20.962,287.932,21.912,289.652,22.262z"/>
		<path d="M284.202,68.182c5.39,7.42,3.5,14.28-5.46,16.42c-6.66,1.6-13.8,1.5-20.74,1.54c-5.74,0.03-11.27-1.16-15.7-5.58
			c-7.22-7.19-6.5-17.11,2.15-22.47c9.65-5.97,19.98-8.2,31-4.07c1.9,0.71,3.6,1.96,5.39,2.96c-0.26,0.64-0.52,1.28-0.77,1.92
			c-2.08-0.36-4.24-0.46-6.21-1.13c-8.02-2.73-15.62-1.22-23.01,2.13c-4.74,2.16-8.77,5-8.24,11.15c0.4,4.64,4.34,9.25,10.35,9.96
			c7.05,0.83,14.33,1.01,21.37,0.23c2.99-0.33,6.7-3.28,8.12-6.05c1.39-2.72-5.52-9.34-9.49-9.2c-3.96,0.14-7.86,1.47-11.83,1.97
			c-1.52,0.19-3.16-0.47-4.74-0.75c0.9-1.22,1.54-3,2.76-3.58C269.212,58.872,277.772,59.332,284.202,68.182z"/>
		<path d="M274.462,98.072c2.54-1.1,5.25-1.82,8.79-3.03c-3.1,6.49-12.54,11.36-19.56,10.76c-9.29-0.8-13.54-7.61-17.69-14.45
			c0.47-0.58,0.95-1.17,1.42-1.75c2.25,1.67,4.91,2.99,6.65,5.09C260.002,101.852,266.892,101.382,274.462,98.072z"/>
		<path d="M226.732,20.412c2.81,1.67,2.85,3.98,0.3,5.65c-11.97,7.88-24.9,11.93-39.15,7.77c-2.46-0.71-4.92-3.7-5.89-6.21
			c-0.4-1.03,2.8-4.33,4.95-5.31c8.67-3.94,17.43-7.92,27.31-7.62c1.5,0.04,2.99,0.41,4.88,0.69c-11.21,3.76-21.78,7.31-33.1,11.11
			c7.17,6.97,27.98,4.77,34.59-2.65c-4.09,0.25-7.87,0.48-12.92,0.79C212.512,19.762,222.712,18.012,226.732,20.412z"/>
		<path d="M205.662,53.632c5.15-1.68,9.06-2.96,13.79-4.5C217.022,55.742,212.802,57.202,205.662,53.632z"/>
		<path d="M229.582,38.222c-6.29,10.25-26.69,14.42-32.93,8.8C207.392,44.152,218.492,41.192,229.582,38.222z"/>
		<path d="M206.262,245.422c-4.44,7.13-8.88,14.27-13.32,21.41c-0.58-0.36-1.16-0.72-1.74-1.08c0.27-6.09,8.02-18.01,13.74-21.15
			C205.382,244.872,205.822,245.142,206.262,245.422z"/>
		<path d="M197.462,231.042c-0.47,10.04-5.56,18.01-11.68,25.51C186.592,246.622,192.342,238.982,197.462,231.042z"/>
		<path d="M185.552,95.372c0.45,0.68,0.9,1.36,1.36,2.05c-7.11,7.98-15.11,14.95-26.09,16.88c-4.27,0.75-9-0.33-12.26-5.03
			c1.11-0.43,1.84-1,2.32-0.84c7.45,2.42,13.67-0.36,19.77-4.28C175.502,101.032,180.572,98.282,185.552,95.372z"/>
		<path d="M182.132,68.392c0.59,1.07-1.44,4.43-3.09,5.74c-10.89,8.61-22.91,13.79-37.29,11.88c-4.56-0.61-9.26-0.07-13.89-0.18
			c-3.92-0.1-8.85-0.22-9.35-4.75c-0.31-2.73,2.4-6.85,4.95-8.67c13.43-9.59,29.19-13.18,44.99-16.58
			c-14.49,8.84-32.7,10.58-44.64,24.04c19.15,2.03,38.06,4.64,53.36-10.37c-3.83-4.44-10.02-3.71-18.91,2.41
			c1.59,0.89,2.99,1.69,4.4,2.48c0.01,0.56,0.02,1.13,0.03,1.7c-4.14,0.42-8.27,1.03-12.41,1.13c-1.02,0.02-2.55-1.49-2.95-2.62
			c-0.27-0.75,0.8-2.42,1.7-3.07c8.03-5.78,16.83-9.43,26.91-7.63C178.282,64.322,181.002,66.332,182.132,68.392z"/>
		<path d="M158.352,17.562c0.08,0.5,0.17,1.01,0.25,1.51c-2.99,1.43-5.98,2.86-10.12,4.84c7.02,2,8.34,5.42,3.97,9
			c-8.43,6.89-18.01,11.62-29.16,11.62c-2.26,0.01-5.79-1.77-6.44-3.56c-0.65-1.78,0.95-5.8,2.71-6.77
			c10.91-6.05,22.09-11.61,33.31-17.05C154.302,16.462,156.512,17.382,158.352,17.562z M149.292,28.992
			c-1.51-1.08-3.02-2.17-4.66-3.36c-7.52,4.84-16.78,6.76-23.72,13.82C129.512,41.162,144.062,35.572,149.292,28.992z"/>
		<path d="M178.812,90.192c-8.77,11.19-44.56,15.42-50.45,5.93C146.042,99.652,161.762,92.562,178.812,90.192z"/>
	</g>
</g>
</svg>